<svg xmlns="http://www.w3.org/2000/svg" version="1.1" xmlns:xlink="http://www.w3.org/1999/xlink" width="200" height="200"><svg xmlns="http://www.w3.org/2000/svg" version="1.1" xmlns:xlink="http://www.w3.org/1999/xlink" viewBox="0 0 200 200"><rect width="200" height="200" fill="url('#gradient')"></rect><defs><linearGradient id="SvgjsLinearGradient1001" gradientTransform="rotate(281 0.5 0.5)"><stop offset="0%" stop-color="#080707"></stop><stop offset="100%" stop-color="#544949"></stop></linearGradient></defs><g><g fill="#ffffff" transform="matrix(7.362350212601469,0,0,7.362350212601469,6.718129690322968,152.34568586106184)" stroke="#80eceb" stroke-width="0.2"><path d="M4.05-14.22L6.38-9.49L8.70-14.22L12.62-14.22L8.64-7.17L12.72 0L8.77 0L6.38-4.81L3.98 0L0.04 0L4.11-7.17L0.15-14.22L4.05-14.22ZM21.63 0L19.12-5.02L17.27-5.02L17.27 0L13.84 0L13.84-14.22L19.43-14.22Q21.96-14.22 23.39-13.10Q24.81-11.97 24.81-9.92L24.81-9.92Q24.81-8.44 24.21-7.46Q23.61-6.48 22.33-5.88L22.33-5.88L25.30-0.15L25.30 0L21.63 0ZM17.27-11.57L17.27-7.67L19.43-7.67Q20.41-7.67 20.90-8.18Q21.40-8.69 21.40-9.61Q21.40-10.53 20.90-11.05Q20.40-11.57 19.43-11.57L19.43-11.57L17.27-11.57Z"></path></g></g></svg><style>@media (prefers-color-scheme: light) { :root { filter: none; } }
@media (prefers-color-scheme: dark) { :root { filter: none; } }
</style></svg>